<svg xmlns="http://www.w3.org/2000/svg" aria-hidden="true" style="position:absolute;width:0;height:0;overflow:hidden">
  <defs>
    <symbol id="icon-checkmark" viewBox="0 0 32 32">
      <path d="m14 21.414-5-5.001L10.413 15 14 18.586 21.585 11 23 12.415l-9 8.999z"/>
      <path d="M16 2A14.002 14.002 0 0 0 2.269 18.731a13.997 13.997 0 0 0 19.089 10.202A14.003 14.003 0 0 0 30 15.999a14.002 14.002 0 0 0-14-14zm0 26a12.007 12.007 0 0 1-11.087-7.407A11.992 11.992 0 0 1 7.514 7.516a11.999 11.999 0 1 1 16.969 16.971 12.003 12.003 0 0 1-8.485 3.515z"/>
    </symbol>
    <symbol id="icon-smile" viewBox="0 0 32 32">
      <path d="M16 30a14 14 0 1 1 0-28 14 14 0 0 1 0 28zm0 2a15.997 15.997 0 0 0 16-16A16.003 16.003 0 0 0 16 0 16.003 16.003 0 0 0 0 16a16.003 16.003 0 0 0 16 16z"/>
      <path d="M8.57 19.134a1.002 1.002 0 0 1 1.366.366A6.998 6.998 0 0 0 16 23c1.229.001 2.437-.322 3.501-.937s1.948-1.498 2.563-2.563a1.007 1.007 0 0 1 .999-.498.996.996 0 0 1 .837.737.99.99 0 0 1-.104.761A8.993 8.993 0 0 1 16 25a8.99 8.99 0 0 1-7.796-4.5 1.002 1.002 0 0 1 .366-1.366zM14 13c0 1.656-.896 3-2 3s-2-1.344-2-3 .896-3 2-3 2 1.344 2 3zm8 0c0 1.656-.896 3-2 3s-2-1.344-2-3 .896-3 2-3 2 1.344 2 3z"/>
    </symbol>
    <symbol id="icon-fire" viewBox="0 0 27 32">
      <path d="M12.905 32C5.355 32 0 26.765 0 19.552c0-3.829 2.296-7.955 2.394-8.128.199-.355.591-.548.999-.503a1.002 1.002 0 0 1 .841.738c.006.024.625 2.339 1.442 3.625.549.865 1.105 1.477 1.731 1.901-.424-1.836-.748-4.597-.22-7.431C8.637 1.975 14.76.114 15.022.039a1 1 0 0 1 1.259 1.152c-.01.055-1.021 5.501 1.125 10.141.195.421.467.911.759 1.401.083-.673.212-1.388.411-2.083.787-2.753 2.822-3.693 2.909-3.731a.997.997 0 0 1 1.347.56 1 1 0 0 1 .048.536c-.011.068-.294 1.941 1.3 4.598 1.44 2.399 1.855 3.955 1.855 6.937 0 7.213-5.521 12.448-13.129 12.448zM3.118 14.613c-.55 1.386-1.116 3.231-1.116 4.938 0 6.053 4.512 10.445 10.902 10.445 6.447 0 11.126-4.393 11.126-10.445 0-2.614-.323-3.828-1.57-5.907-.833-1.388-1.245-2.637-1.442-3.63a4.683 4.683 0 0 0-.517 1.185c-.61 2.134-.457 4.63-.455 4.655a1 1 0 0 1-1.817.644c-.075-.107-1.856-2.628-2.641-4.326-1.63-3.523-1.603-7.333-1.437-9.528-1.65.961-4.183 3.109-4.997 7.477-.792 4.25.747 8.499.764 8.542a1.004 1.004 0 0 1-1.169 1.334c-.124-.03-2.943-.764-4.767-3.639-.326-.515-.618-1.139-.865-1.745z"/>
    </symbol>
    <symbol id="icon-heart" viewBox="0 0 34 32">
      <path d="M4.071 4.674c-1.368 1.741-2.197 4.119-2.197 6.602 0 5.566 3.715 10.238 7.637 13.601a41.077 41.077 0 0 0 7.341 4.985l.237-.132a44.21 44.21 0 0 0 7.124-5.033c3.936-3.436 7.643-8.107 7.643-13.421 0-2.483-.829-4.861-2.197-6.602-1.363-1.735-3.225-2.8-5.328-2.8-2.907 0-5.162 1.893-6.625 4.874l-.841 1.713-.841-1.713c-1.463-2.981-3.718-4.874-6.625-4.874-2.103 0-3.965 1.065-5.328 2.8zm12.794 26.245-.407.844-.004-.002-.011-.005-.038-.019a24.805 24.805 0 0 1-.666-.345A42.911 42.911 0 0 1 8.292 26.3C4.25 22.835.001 17.686.001 11.276c0-2.881.957-5.672 2.597-7.76C4.243 1.423 6.612 0 9.399 0c3.283 0 5.779 1.84 7.466 4.435C18.552 1.839 21.049 0 24.331 0c2.788 0 5.157 1.423 6.802 3.516 1.64 2.088 2.597 4.879 2.597 7.76 0 6.167-4.257 11.318-8.285 14.833a46.045 46.045 0 0 1-7.958 5.541 8.505 8.505 0 0 1-.141.075l-.038.02-.011.005-.003.002h-.001l-.428-.833zm0 0 .428.833-.415.213-.42-.202.407-.844z"/>
    </symbol>
  </defs>
</svg>
